<svg height="87" width="330" style="block-size:87px;bottom:213px;cursor:pointer;display:block;height:87px;inline-size:330px;inset-block-end:213px;inset-block-start:300px;inset-inline-end:235px;inset-inline-start:565px;left:565px;perspective-origin:165px 43.5px;transform-origin:165px 43.5px;width:330px;z-index:0;" version="1.1" xmlns="http://www.w3.org/2000/svg" xmlns:xlink="http://www.w3.org/1999/xlink"><defs id="SvgjsDefs1001" style="block-size:auto;cursor:pointer;height:auto;inline-size:auto;overflow-x:visible;overflow-y:visible;perspective-origin:0px 0px;transform-origin:0px 0px;width:auto;"><linearGradient id="SvgjsLinearGradient1013" style="block-size:auto;cursor:pointer;height:auto;inline-size:auto;overflow-x:visible;overflow-y:visible;perspective-origin:0px 0px;transform-origin:0px 0px;width:auto;"><stop id="SvgjsStop1014" stop-color="#00ff8f" offset="0" style="block-size:auto;cursor:pointer;height:auto;inline-size:auto;overflow-x:visible;overflow-y:visible;perspective-origin:50% 50%;stop-color:rgb(0, 255, 143);transform-origin:0px 0px;width:auto;"/><stop id="SvgjsStop1015" stop-color="#00a1ff" offset="1" style="block-size:auto;cursor:pointer;height:auto;inline-size:auto;overflow-x:visible;overflow-y:visible;perspective-origin:50% 50%;stop-color:rgb(0, 161, 255);transform-origin:0px 0px;width:auto;"/></linearGradient></defs><g id="SvgjsG1007" featurekey="symbolContainer" transform="matrix(1,0,0,1,0,0)" fill="url(#SvgjsLinearGradient1013)" style="block-size:auto;cursor:pointer;fill:url(&quot;#SvgjsLinearGradient1013&quot;);height:auto;inline-size:auto;overflow-x:visible;overflow-y:visible;perspective-origin:0px 0px;transform:matrix(1, 0, 0, 1, 0, 0);transform-origin:0px 0px;width:auto;">    <rect rx= "20" width="110" height="110" style="block-size:87px;cursor:pointer;fill:url(&quot;#SvgjsLinearGradient1013&quot;);height:87px;inline-size:110px;overflow-x:visible;overflow-y:visible;perspective-origin:0px 0px;transform-origin:0px 0px;width:110px;"/></g><g id="SvgjsG1008" featurekey="monogramFeature-0" transform="matrix(1.3302926913893176,0,0,1.3302926913893176,18.882552667580445,-8.147092322707739)" fill="#303a52" style="block-size:auto;cursor:pointer;fill:rgb(48, 58, 82);height:auto;inline-size:auto;overflow-x:visible;overflow-y:visible;perspective-origin:0px 0px;transform:matrix(1.33029, 0, 0, 1.33029, 18.8826, -8.14709);transform-origin:0px 0px;width:auto;"><path d="M51 53.4 c0.54 2.82 2.46 3.54 2.46 5.22 l0 0.24 c0 0.72 -0.6 1.14 -1.44 1.14 l-12.48 0 c-0.9 0 -1.44 -0.42 -1.44 -1.14 l0 -0.24 c0 -1.68 2.58 -2.46 2.1 -5.22 l-3.6 -20.94 l-9.18 25.74 c-0.42 1.2 -0.96 1.74 -2.16 1.74 c-1.26 0 -1.98 -0.48 -2.52 -1.68 l-10.5 -26.76 l-3.24 21.9 c-0.42 2.82 2.16 3.54 2.16 5.22 l0 0.24 c0 0.72 -0.6 1.14 -1.44 1.14 l-7.44 0 c-0.9 0 -1.44 -0.42 -1.44 -1.14 l0 -0.24 c0 -1.68 2.04 -2.4 2.46 -5.22 l4.56 -29.4 c0.42 -2.76 -2.34 -3.48 -2.34 -5.22 l0 -0.24 c0 -0.72 0.54 -1.14 1.38 -1.14 l7.92 0 c1.62 0 2.7 0.72 3.24 2.16 l8.7 25.44 l8.4 -25.32 c0.54 -1.5 1.56 -2.28 3.12 -2.28 l8.16 0 c0.84 0 1.38 0.42 1.38 1.14 l0 0.24 c0 1.68 -2.88 2.46 -2.34 5.34 z" style="block-size:auto;cursor:pointer;d:path(&quot;M 51 53.4 C 51.54 56.22 53.46 56.94 53.46 58.62 L 53.46 58.86 C 53.46 59.58 52.86 60 52.02 60 L 39.54 60 C 38.64 60 38.1 59.58 38.1 58.86 L 38.1 58.62 C 38.1 56.94 40.68 56.16 40.2 53.4 L 36.6 32.46 L 27.42 58.2 C 27 59.4 26.46 59.94 25.26 59.94 C 24 59.94 23.28 59.46 22.74 58.26 L 12.24 31.5 L 9 53.4 C 8.58 56.22 11.16 56.94 11.16 58.62 L 11.16 58.86 C 11.16 59.58 10.56 60 9.72 60 L 2.28 60 C 1.38 60 0.840001 59.58 0.840001 58.86 L 0.840001 58.62 C 0.840001 56.94 2.88 56.22 3.3 53.4 L 7.86 24 C 8.28 21.24 5.52 20.52 5.52 18.78 L 5.52 18.54 C 5.52 17.82 6.06 17.4 6.9 17.4 L 14.82 17.4 C 16.44 17.4 17.52 18.12 18.06 19.56 L 26.76 45 L 35.16 19.68 C 35.7 18.18 36.72 17.4 38.28 17.4 L 46.44 17.4 C 47.28 17.4 47.82 17.82 47.82 18.54 L 47.82 18.78 C 47.82 20.46 44.94 21.24 45.48 24.12 Z&quot;);fill:rgb(230, 230, 230);height:auto;inline-size:auto;overflow-x:visible;overflow-y:visible;perspective-origin:0px 0px;transform-origin:0px 0px;width:auto;"/></g><g id="SvgjsG1009" featurekey="nameFeature-0" transform="matrix(1.676786355642277,0,0,1.676786355642277,125.9757141856558,-0.12143626770732396)" fill="#ffffff" style="block-size:auto;cursor:pointer;fill:rgb(255, 255, 255);height:auto;inline-size:auto;overflow-x:visible;overflow-y:visible;perspective-origin:0px 0px;transform:matrix(1.67679, 0, 0, 1.67679, 125.976, -0.121436);transform-origin:0px 0px;width:auto;"><path d="M31.56 12 l0 28 l-3.4 0 l0 -20.56 l-9.84 20.56 l-2.72 0 l-9.8 -20.52 l0 20.52 l-3.4 0 l0 -28 l3.28 0 l11.32 23.44 l11.28 -23.44 l3.28 0 z M46 18.84 c4.72 0 10.68 3.6 10.68 10.8 s-5.96 10.76 -10.68 10.76 s-10.64 -3.56 -10.64 -10.76 s5.92 -10.8 10.64 -10.8 z M46 21.76 c-3.36 0 -7.44 2.6 -7.44 7.88 c0 5.24 4.08 7.84 7.44 7.84 c3.4 0 7.48 -2.6 7.48 -7.84 c0 -5.28 -4.08 -7.88 -7.48 -7.88 z M70.12 18.84 c4.72 0 10.68 3.6 10.68 10.8 s-5.96 10.76 -10.68 10.76 s-10.64 -3.56 -10.64 -10.76 s5.92 -10.8 10.64 -10.8 z M70.12 21.76 c-3.36 0 -7.44 2.6 -7.44 7.88 c0 5.24 4.08 7.84 7.44 7.84 c3.4 0 7.48 -2.6 7.48 -7.84 c0 -5.28 -4.08 -7.88 -7.48 -7.88 z M94.60000000000001 24.240000000000002 c-0.8 -1.68 -2.12 -2.72 -4.04 -2.72 c-2 0 -3.36 1.2 -3.36 2.8 c0 1.44 0.76 2.48 2.84 3.24 l2.08 0.72 c3.48 1.24 6.04 2.52 6.04 6.16 c0 3.96 -3.84 6 -7.4 6 c-3.6 0 -6.8 -2.08 -7.56 -5.56 l2.64 -0.8 c0.64 2.28 2.52 3.68 4.92 3.68 c2.08 0 4.16 -1.2 4.16 -3.28 c0 -1.8 -1.24 -2.76 -3.4 -3.52 l-2.32 -0.84 c-3.64 -1.28 -5.2 -3.32 -5.2 -5.8 c0 -3.24 2.88 -5.48 6.48 -5.48 c3.36 0 5.72 1.84 6.84 4.6 z M111.4 18.84 c4.72 0 11.04 3.6 10.2 11.96 l-17.56 0 c0.52 4.56 4.08 6.8 7.84 6.8 c2.88 0 4.72 -0.8 6.28 -2.32 l1.92 1.76 c-1.88 2.24 -4.6 3.36 -8.24 3.36 c-5.36 0 -11.08 -3.6 -11.08 -10.76 c0 -7.2 5.92 -10.8 10.64 -10.8 z M111.4 21.68 c-3.08 0 -6.76 2.2 -7.36 6.68 l14.68 0 c-0.4 -4.48 -4.2 -6.68 -7.32 -6.68 z" style="block-size:auto;cursor:pointer;d:path(&quot;M 31.56 12 L 31.56 40 L 28.16 40 L 28.16 19.44 L 18.32 40 L 15.6 40 L 5.8 19.48 L 5.8 40 L 2.4 40 L 2.4 12 L 5.68 12 L 17 35.44 L 28.28 12 L 31.56 12 Z M 46 18.84 C 50.72 18.84 56.68 22.44 56.68 29.64 S 50.72 40.4 46 40.4 S 35.36 36.84 35.36 29.64 S 41.28 18.84 46 18.84 Z M 46 21.76 C 42.64 21.76 38.56 24.36 38.56 29.64 C 38.56 34.88 42.64 37.48 46 37.48 C 49.4 37.48 53.48 34.88 53.48 29.64 C 53.48 24.36 49.4 21.76 46 21.76 Z M 70.12 18.84 C 74.84 18.84 80.8 22.44 80.8 29.64 S 74.84 40.4 70.12 40.4 S 59.48 36.84 59.48 29.64 S 65.4 18.84 70.12 18.84 Z M 70.12 21.76 C 66.76 21.76 62.68 24.36 62.68 29.64 C 62.68 34.88 66.76 37.48 70.12 37.48 C 73.52 37.48 77.6 34.88 77.6 29.64 C 77.6 24.36 73.52 21.76 70.12 21.76 Z M 94.6 24.24 C 93.8 22.56 92.48 21.52 90.56 21.52 C 88.56 21.52 87.2 22.72 87.2 24.32 C 87.2 25.76 87.96 26.8 90.04 27.56 L 92.12 28.28 C 95.6 29.52 98.16 30.8 98.16 34.44 C 98.16 38.4 94.32 40.44 90.76 40.44 C 87.16 40.44 83.96 38.36 83.2 34.88 L 85.84 34.08 C 86.48 36.36 88.36 37.76 90.76 37.76 C 92.84 37.76 94.92 36.56 94.92 34.48 C 94.92 32.68 93.68 31.72 91.52 30.96 L 89.2 30.12 C 85.56 28.84 84 26.8 84 24.32 C 84 21.08 86.88 18.84 90.48 18.84 C 93.84 18.84 96.2 20.68 97.32 23.44 Z M 111.4 18.84 C 116.12 18.84 122.44 22.44 121.6 30.8 L 104.04 30.8 C 104.56 35.36 108.12 37.6 111.88 37.6 C 114.76 37.6 116.6 36.8 118.16 35.28 L 120.08 37.04 C 118.2 39.28 115.48 40.4 111.84 40.4 C 106.48 40.4 100.76 36.8 100.76 29.64 C 100.76 22.44 106.68 18.84 111.4 18.84 Z M 111.4 21.68 C 108.32 21.68 104.64 23.88 104.04 28.36 L 118.72 28.36 C 118.32 23.88 114.52 21.68 111.4 21.68 Z&quot;);fill:rgb(255, 255, 255);height:auto;inline-size:auto;overflow-x:visible;overflow-y:visible;perspective-origin:0px 0px;transform-origin:0px 0px;width:auto;"/></g></svg>