<svg height="87" width="150" style="block-size:36px;bottom:213px;cursor:pointer;display:block;height:87px;inline-size:150px;inset-block-end:213px;inset-block-start:300px;inset-inline-end:235px;inset-inline-start:565px;left:565px;perspective-origin:165px 43.5px;transform-origin:165px 43.5px;width:330px;z-index:0;" version="1.1" xmlns="http://www.w3.org/2000/svg" xmlns:xlink="http://www.w3.org/1999/xlink"><defs id="SvgjsDefs1001" style="block-size:auto;cursor:pointer;height:auto;inline-size:auto;overflow-x:visible;overflow-y:visible;perspective-origin:0px 0px;transform-origin:0px 0px;width:auto;"><linearGradient id="SvgjsLinearGradient1013" style="block-size:auto;cursor:pointer;height:auto;inline-size:auto;overflow-x:visible;overflow-y:visible;perspective-origin:0px 0px;transform-origin:0px 0px;width:auto;"><stop id="SvgjsStop1014" stop-color="#00ff8f" offset="0" style="block-size:auto;cursor:pointer;height:auto;inline-size:auto;overflow-x:visible;overflow-y:visible;perspective-origin:50% 50%;stop-color:rgb(0, 255, 143);transform-origin:0px 0px;width:auto;"/><stop id="SvgjsStop1015" stop-color="#00a1ff" offset="1" style="block-size:auto;cursor:pointer;height:auto;inline-size:auto;overflow-x:visible;overflow-y:visible;perspective-origin:50% 50%;stop-color:rgb(0, 161, 255);transform-origin:0px 0px;width:auto;"/></linearGradient></defs><g id="SvgjsG1007" featurekey="symbolContainer" transform="matrix(1,0,0,1,0,0)" fill="url(#SvgjsLinearGradient1013)" style="block-size:auto;cursor:pointer;fill:url(&quot;#SvgjsLinearGradient1013&quot;);height:auto;inline-size:auto;overflow-x:visible;overflow-y:visible;perspective-origin:0px 0px;transform:matrix(1, 0, 0, 1, 0, 0);transform-origin:0px 0px;width:auto;">    <rect rx= "20" width="110" height="110" style="block-size:87px;cursor:pointer;fill:url(&quot;#SvgjsLinearGradient1013&quot;);height:87px;inline-size:110px;overflow-x:visible;overflow-y:visible;perspective-origin:0px 0px;transform-origin:0px 0px;width:150x;"/></g><g id="SvgjsG1008" featurekey="monogramFeature-0" transform="matrix(1.3302926913893176,0,0,1.3302926913893176,18.882552667580445,-8.147092322707739)" fill="#303a52" style="block-size:auto;cursor:pointer;fill:rgb(48, 58, 82);height:auto;inline-size:auto;overflow-x:visible;overflow-y:visible;perspective-origin:0px 0px;transform:matrix(1.33029, 0, 0, 1.33029, 18.8826, -8.14709);transform-origin:0px 0px;width:auto;"><path d="M51 53.4 c0.54 2.82 2.46 3.54 2.46 5.22 l0 0.24 c0 0.72 -0.6 1.14 -1.44 1.14 l-12.48 0 c-0.9 0 -1.44 -0.42 -1.44 -1.14 l0 -0.24 c0 -1.68 2.58 -2.46 2.1 -5.22 l-3.6 -20.94 l-9.18 25.74 c-0.42 1.2 -0.96 1.74 -2.16 1.74 c-1.26 0 -1.98 -0.48 -2.52 -1.68 l-10.5 -26.76 l-3.24 21.9 c-0.42 2.82 2.16 3.54 2.16 5.22 l0 0.24 c0 0.72 -0.6 1.14 -1.44 1.14 l-7.44 0 c-0.9 0 -1.44 -0.42 -1.44 -1.14 l0 -0.24 c0 -1.68 2.04 -2.4 2.46 -5.22 l4.56 -29.4 c0.42 -2.76 -2.34 -3.48 -2.34 -5.22 l0 -0.24 c0 -0.72 0.54 -1.14 1.38 -1.14 l7.92 0 c1.62 0 2.7 0.72 3.24 2.16 l8.7 25.44 l8.4 -25.32 c0.54 -1.5 1.56 -2.28 3.12 -2.28 l8.16 0 c0.84 0 1.38 0.42 1.38 1.14 l0 0.24 c0 1.68 -2.88 2.46 -2.34 5.34 z" style="block-size:auto;cursor:pointer;d:path(&quot;M 51 53.4 C 51.54 56.22 53.46 56.94 53.46 58.62 L 53.46 58.86 C 53.46 59.58 52.86 60 52.02 60 L 39.54 60 C 38.64 60 38.1 59.58 38.1 58.86 L 38.1 58.62 C 38.1 56.94 40.68 56.16 40.2 53.4 L 36.6 32.46 L 27.42 58.2 C 27 59.4 26.46 59.94 25.26 59.94 C 24 59.94 23.28 59.46 22.74 58.26 L 12.24 31.5 L 9 53.4 C 8.58 56.22 11.16 56.94 11.16 58.62 L 11.16 58.86 C 11.16 59.58 10.56 60 9.72 60 L 2.28 60 C 1.38 60 0.840001 59.58 0.840001 58.86 L 0.840001 58.62 C 0.840001 56.94 2.88 56.22 3.3 53.4 L 7.86 24 C 8.28 21.24 5.52 20.52 5.52 18.78 L 5.52 18.54 C 5.52 17.82 6.06 17.4 6.9 17.4 L 14.82 17.4 C 16.44 17.4 17.52 18.12 18.06 19.56 L 26.76 45 L 35.16 19.68 C 35.7 18.18 36.72 17.4 38.28 17.4 L 46.44 17.4 C 47.28 17.4 47.82 17.82 47.82 18.54 L 47.82 18.78 C 47.82 20.46 44.94 21.24 45.48 24.12 Z&quot;);fill:rgb(48, 58, 82);height:auto;inline-size:auto;overflow-x:visible;overflow-y:visible;perspective-origin:0px 0px;transform-origin:0px 0px;width:auto;"/></g><g id="SvgjsG1009" featurekey="nameFeature-0" transform="matrix(1.676786355642277,0,0,1.676786355642277,125.9757141856558,-0.12143626770732396)" fill="#ffffff" style="block-size:auto;cursor:pointer;fill:rgb(255, 255, 255);height:auto;inline-size:auto;overflow-x:visible;overflow-y:visible;perspective-origin:0px 0px;transform:matrix(1.67679, 0, 0, 1.67679, 125.976, -0.121436);transform-origin:0px 0px;width:auto;"></g></svg>